# xmcd CD database file
#
# Track frame offsets:
#	150
#	10760
#	21861
#	33962
#	48220
#	54822
#	76382
#	99529
#	120243
#	122325
#	138020
#	159491
#	175148
#	199694
#
# Disc length: 2935 seconds
#
# Revision: 0
# Processed by: cddbd v1.4PL0 Copyright (c) Steve Scherf et al.
# Submitted via: CDex 1.51
#
DISCID=980b750e
DTITLE=Buddy Ray and Done With Trouble - Live at The Brown Derby
DYEAR=2001
DGENRE=Blues
TTITLE0=Rockin' Intro
TTITLE1=House Is Rockin'
TTITLE2=Look at Little Sister
TTITLE3=Come On (Part III)
TTITLE4=Hawaiian Interlude
TTITLE5=Willie The Wimp
TTITLE6=Lenny
TTITLE7=Cold Shot
TTITLE8=Weather Prelude
TTITLE9=Pride and Joy
TTITLE10=Couldn't Stand The Weather
TTITLE11=Funky Interlude
TTITLE12=Tightrope
TTITLE13=Crossfire
EXTD=YEAR: 2001
EXTT0=
EXTT1=
EXTT2=
EXTT3=
EXTT4=
EXTT5=
EXTT6=
EXTT7=
EXTT8=
EXTT9=
EXTT10=
EXTT11=
EXTT12=
EXTT13=
PLAYORDER=
